<svg id="Layer_1" data-name="Layer 1" xmlns="http://www.w3.org/2000/svg" viewBox="0 0 66.35 80"><defs><style>.cls-1{fill:none;stroke:#d67456;stroke-miterlimit:10;stroke-width:3px;}</style></defs><title>brainstorm</title><path class="cls-1" d="M460.64,3983.07c0.36-.44.71-0.9,1-1.39s0.69-1.09,1.08-1.76a33.22,33.22,0,0,0,7-20.48c0-17.76-13.8-32.2-30.76-32.2a30.13,30.13,0,0,0-23.81,11.85,6.17,6.17,0,0,0-.6.71,5.27,5.27,0,0,0-.35.56c-1.59,2.26-3.71,8.18-3.71,10.15a13.4,13.4,0,0,0-.13,1.81c0,0.43,0,.86,0,1.28,0,0.83,0,1.67,0,2.5a9.27,9.27,0,0,0,.49,2.36,9.24,9.24,0,0,1-.39,6.91l-0.48,1.35c-0.52,1.46-1,3-1.64,4.41a8.13,8.13,0,0,1-.66,1.1c-0.7,1.05-1.56,2.37-1.26,3.8a3,3,0,0,0,1.39,1.9,6.59,6.59,0,0,0,1.91.73,8.21,8.21,0,0,1,.86.26c0,0.13,0,.3-0.07.43a3.81,3.81,0,0,0,0,2,2.2,2.2,0,0,0,.86,1.15,2.68,2.68,0,0,0,.44,3.22c0.12,0.15.26,0.33,0.41,0.55,0.28,0.41.21,0.93,0,2a5.76,5.76,0,0,0,.11,3.88c1.32,2.77,4.69,3,6.92,3.21l0.94,0.08a41.38,41.38,0,0,0,4.25.19c0.87,0,1.74,0,2.61,0l1.43,0,3.57,7.69a1.59,1.59,0,0,0,1.44.92h33.14a1.59,1.59,0,0,0,1.19-2.64C467.83,4001.51,460,3992.56,460.64,3983.07Zm-21.39-4.33a20.26,20.26,0,1,1,20.26-20.27A20.29,20.29,0,0,1,439.25,3978.74Z" transform="translate(-404.92 -3925.74)"/><circle class="cls-1" cx="23.65" cy="32.73" r="3.11"/><circle class="cls-1" cx="34.33" cy="32.73" r="3.11"/><circle class="cls-1" cx="45.01" cy="32.73" r="3.11"/></svg>