<svg id="Layer_1" data-name="Layer 1" xmlns="http://www.w3.org/2000/svg" viewBox="0 0 80.58 80"><defs><style>.cls-1{fill:none;stroke:#d67456;stroke-miterlimit:10;stroke-width:3px;}</style></defs><title>prototype</title><path class="cls-1" d="M899.24,3973a11.13,11.13,0,0,1-7.11-5,13.44,13.44,0,0,0-3.17-3.39,54.12,54.12,0,0,0-6.89-4c-7.33-3.5-14.87-4.37-22.63-1.86a0.83,0.83,0,0,0-.44.22,1.23,1.23,0,0,0,.77,2.19h0.33a16.84,16.84,0,0,1,9.51,1.42c5.58,3,6.89,7.87,3.39,13.12-0.66,1-1.31,1.86-2,2.84a2.13,2.13,0,0,0-.22,2,1,1,0,0,1-.11,1.2c-5.36,7.87-10.72,15.64-16.07,23.4,0,0.11-.11.11-0.11,0.22a2.66,2.66,0,0,0,.11,3.5,11.46,11.46,0,0,0,4.59,3.28,2.28,2.28,0,0,0,3.06-1c5.47-8,11-16,16.51-23.95a1.15,1.15,0,0,1,1-.55,1.76,1.76,0,0,0,1.2-.55,12.9,12.9,0,0,1,3.06-2.51,8.5,8.5,0,0,1,5-1.31,6.12,6.12,0,0,1,3.06,1.86,1.37,1.37,0,0,0,2.08-.33l6-8.53A1.55,1.55,0,0,0,899.24,3973Z" transform="translate(-852.42 -3955.73)"/><path class="cls-1" d="M905.31,3975.55a1.4,1.4,0,0,1,2-.33l1,0.66a2.4,2.4,0,0,1,.66,3.5c-2.41,3.5-4.7,6.89-7.22,10.28-1.2,1.64-2.41,1.53-4.48-.11a1.37,1.37,0,0,1-.22-1.86Z" transform="translate(-852.42 -3955.73)"/><path class="cls-1" d="M928.77,4014.44H910a2.71,2.71,0,0,1-2.73-2.73v-8.31a2.71,2.71,0,0,1,2.73-2.73h18.81a2.71,2.71,0,0,1,2.73,2.73v8.31A2.71,2.71,0,0,1,928.77,4014.44Z" transform="translate(-852.42 -3955.73)"/><path class="cls-1" d="M898.59,4014.44H879.78a2.71,2.71,0,0,1-2.73-2.73v-8.31a2.71,2.71,0,0,1,2.73-2.73h18.81a2.71,2.71,0,0,1,2.73,2.73v8.31A2.71,2.71,0,0,1,898.59,4014.44Z" transform="translate(-852.42 -3955.73)"/><path class="cls-1" d="M911.93,4034.23H893.12a2.71,2.71,0,0,1-2.73-2.73v-8.31a2.71,2.71,0,0,1,2.73-2.73h18.81a2.71,2.71,0,0,1,2.73,2.73v8.31A2.71,2.71,0,0,1,911.93,4034.23Z" transform="translate(-852.42 -3955.73)"/><path class="cls-1" d="M882.95,4034.23H864.14a2.71,2.71,0,0,1-2.73-2.73v-8.31a2.71,2.71,0,0,1,2.73-2.73h18.81a2.71,2.71,0,0,1,2.73,2.73v8.31A2.71,2.71,0,0,1,882.95,4034.23Z" transform="translate(-852.42 -3955.73)"/></svg>