<svg id="Layer_1" data-name="Layer 1" xmlns="http://www.w3.org/2000/svg" viewBox="0 0 60.75 80"><defs><style>.cls-1{fill:none;stroke:#d67456;stroke-miterlimit:10;stroke-width:3px;}</style></defs><title>research</title><path class="cls-1" d="M995.46,3939H950.54a6.42,6.42,0,0,1-6.42-6.42v-57.75a6.42,6.42,0,0,1,6.42-6.42h16c-1.77,0-6.42,1.43-6.42,3.21v3.21h25.67v-3.21c0-1.77-4.64-3.21-6.42-3.21h16a6.42,6.42,0,0,1,6.42,6.42v57.75A6.42,6.42,0,0,1,995.46,3939ZM957,3884.46h-6.42v6.42H957v-6.42Zm0,12.83h-6.42v6.42H957v-6.42Zm0,12.83h-6.42v6.42H957v-6.42Zm0,12.83h-6.42v6.42H957V3923Zm38.5-38.5H963.38v6.42h32.08v-6.42Zm0,12.83H963.38v6.42h32.08v-6.42Zm0,12.83H963.38v6.42h32.08v-6.42Zm0,12.83H963.38v6.42h32.08V3923Zm-25.67-54.54h-3.21v-3.21a3.21,3.21,0,0,1,3.21-3.21h6.42a3.21,3.21,0,0,1,3.21,3.21v3.21h-9.62Z" transform="translate(-942.63 -3860.5)"/></svg>